<?xml version="1.0" standalone="no"?>
<!DOCTYPE svg PUBLIC "-//W3C//DTD SVG 20010904//EN"
 "http://www.w3.org/TR/2001/REC-SVG-20010904/DTD/svg10.dtd">
<svg version="1.0" xmlns="http://www.w3.org/2000/svg"
 width="7200.000000pt" height="7200.000000pt" viewBox="0 0 7200.000000 7200.000000"
 preserveAspectRatio="xMidYMid meet">

<g transform="translate(0.000000,7200.000000) scale(0.100000,-0.100000)"
fill="#000000" stroke="none">
<path d="M13600 68149 c-2884 -146 -5540 -1514 -7343 -3784 -747 -940 -1337
-2051 -1697 -3195 -239 -762 -383 -1534 -442 -2370 -19 -274 -19 -44666 0
-44940 39 -552 113 -1067 228 -1575 557 -2472 2058 -4660 4174 -6084 1366
-920 2930 -1486 4560 -1650 474 -48 110 -46 8010 -46 l7445 0 250 23 c666 61
1162 128 1725 233 2294 429 4347 1364 5971 2720 687 574 1317 1245 1840 1959
990 1350 1648 2845 1988 4513 167 817 252 1581 281 2512 11 358 14 23742 3
28978 l-6 3337 -4104 0 -4103 0 0 -16032 c0 -10563 -4 -16118 -10 -16283 -50
-1226 -271 -2199 -687 -3017 -345 -680 -799 -1202 -1384 -1592 -438 -293 -950
-502 -1511 -616 -158 -32 -473 -80 -525 -80 -26 0 -33 -4 -33 -20 0 -20 -7
-20 -6077 -20 -3996 0 -6143 4 -6268 10 -1373 74 -2611 624 -3575 1590 -811
812 -1330 1822 -1519 2955 -25 148 -48 354 -61 545 -14 201 -14 40019 0 40220
29 417 92 782 200 1162 407 1436 1427 2670 2765 3348 685 347 1405 538 2190
580 264 14 39746 14 40010 0 784 -42 1510 -235 2191 -581 1449 -736 2511
-2109 2848 -3682 63 -292 95 -519 116 -827 14 -201 14 -40019 0 -40220 -22
-310 -53 -538 -115 -826 -312 -1450 -1234 -2731 -2524 -3504 -758 -454 -1607
-711 -2516 -760 -122 -6 -1500 -10 -3862 -10 l-3673 0 0 -3310 0 -3310 4923 3
c3775 2 4956 6 5067 15 458 39 796 82 1151 147 2241 411 4286 1591 5779 3335
1457 1703 2288 3808 2390 6055 17 370 9 44578 -8 44775 -40 466 -82 796 -147
1151 -408 2227 -1579 4264 -3304 5751 -1446 1247 -3183 2043 -5066 2322 -310
46 -650 79 -995 96 -236 12 -44316 11 -44550 -1z"/>
<path d="M36100 59404 c-534 -46 -935 -135 -1368 -306 -916 -360 -1776 -1104
-2257 -1953 -238 -418 -388 -872 -455 -1375 -27 -200 -38 -633 -21 -846 80
-997 482 -1831 1238 -2565 652 -632 1402 -1035 2243 -1203 1037 -208 2166 -69
3053 375 744 373 1431 1007 1847 1706 283 473 445 958 517 1543 25 207 25 726
0 930 -81 650 -278 1186 -628 1706 -173 256 -331 444 -581 690 -380 374 -734
628 -1183 849 -472 232 -929 363 -1505 431 -128 15 -779 28 -900 18z"/>
</g>
</svg>
