<?xml version="1.0" encoding="UTF-8"?>
<!DOCTYPE svg PUBLIC "-//W3C//DTD SVG 1.1//EN" "http://www.w3.org/Graphics/SVG/1.1/DTD/svg11.dtd">
<svg xmlns="http://www.w3.org/2000/svg" version="1.1" width="7200px" height="7200px" style="shape-rendering:geometricPrecision; text-rendering:geometricPrecision; image-rendering:optimizeQuality; fill-rule:evenodd; clip-rule:evenodd" xmlns:xlink="http://www.w3.org/1999/xlink">
<g><path style="opacity:0.999" fill="#6e07f3" d="M 1365.5,383.5 C 2847.5,383.333 4329.5,383.5 5811.5,384C 6065.57,397.922 6283.9,492.255 6466.5,667C 6651.92,852.089 6752.09,1076.26 6767,1339.5C 6767.67,2824.17 6767.67,4308.83 6767,5793.5C 6753.17,6047.06 6659.17,6265.06 6485,6447.5C 6299.76,6633.5 6075.26,6734 5811.5,6749C 5486.17,6749.5 5160.83,6749.67 4835.5,6749.5C 4835.5,6528.5 4835.5,6307.5 4835.5,6086.5C 5082.5,6086.67 5329.5,6086.5 5576.5,6086C 5735.8,6079.42 5867.97,6016.92 5973,5898.5C 6053.31,5803.5 6096.97,5693.5 6104,5568.5C 6104.67,4233.83 6104.67,2899.17 6104,1564.5C 6093.82,1403.29 6027.32,1271.13 5904.5,1168C 5809.09,1091.18 5699.75,1050.85 5576.5,1047C 4913.83,1046.83 4251.17,1046.67 3588.5,1046.5C 2925.83,1046.67 2263.17,1046.83 1600.5,1047C 1441.2,1053.58 1309.03,1116.08 1204,1234.5C 1123.69,1329.5 1080.03,1439.5 1073,1564.5C 1072.33,2899.17 1072.33,4233.83 1073,5568.5C 1085.18,5747.43 1163.68,5888.6 1308.5,5992C 1396.4,6051.74 1493.73,6083.08 1600.5,6086C 2007.83,6086.5 2415.17,6086.67 2822.5,6086.5C 2822.5,6085.5 2822.5,6084.5 2822.5,6083.5C 3002.12,6064.51 3124.62,5971.17 3190,5803.5C 3218.91,5722.02 3234.25,5638.02 3236,5551.5C 3236.27,4474.5 3236.77,3397.5 3237.5,2320.5C 3511.5,2320.5 3785.5,2320.5 4059.5,2320.5C 4059.67,3400.17 4059.5,4479.83 4059,5559.5C 4055.82,5698.24 4031.82,5833.24 3987,5964.5C 3891.16,6225.79 3723.33,6426.62 3483.5,6567C 3348.55,6643.66 3204.55,6695.99 3051.5,6724C 2986.33,6736.19 2920.66,6744.52 2854.5,6749C 2606.33,6749.17 2358.17,6749.33 2110,6749.5C 1861.83,6749.33 1613.67,6749.17 1365.5,6749C 1111.43,6735.08 893.096,6640.75 710.5,6466C 525.079,6280.91 424.912,6056.74 410,5793.5C 409.833,5051.17 409.667,4308.83 409.5,3566.5C 409.667,2824.17 409.833,2081.83 410,1339.5C 424.912,1076.26 525.079,852.089 710.5,667C 893.28,492.321 1111.61,397.821 1365.5,383.5 Z"/></g>
<g><path style="opacity:0.997" fill="#6e07f3" d="M 3620.5,1257.5 C 3788.49,1251.76 3922.33,1315.76 4022,1449.5C 4079.48,1533.42 4101.81,1626.09 4089,1727.5C 4080.29,1797.36 4054.62,1860.02 4012,1915.5C 3905.89,2046.92 3768.06,2105.75 3598.5,2092C 3496.18,2082.49 3407.51,2043.15 3332.5,1974C 3219.21,1868.45 3177.37,1739.28 3207,1586.5C 3219.98,1531.22 3243.64,1481.22 3278,1436.5C 3334.71,1363.81 3406.54,1311.98 3493.5,1281C 3534.94,1267.54 3577.27,1259.71 3620.5,1257.5 Z"/></g>
</svg>
